<?xml version="1.0" standalone="no"?>
<!DOCTYPE svg PUBLIC "-//W3C//DTD SVG 20010904//EN"
 "http://www.w3.org/TR/2001/REC-SVG-20010904/DTD/svg10.dtd">
<svg version="1.0" xmlns="http://www.w3.org/2000/svg"
 width="260.000000pt" height="260.000000pt" viewBox="0 0 260.000000 260.000000"
 preserveAspectRatio="xMidYMid meet">
<metadata>
Created by potrace 1.14, written by Peter Selinger 2001-2017
</metadata>
<g transform="translate(0.000000,260.000000) scale(0.100000,-0.100000)"
fill="#000000" stroke="none">
<path d="M350 1310 l0 -600 75 0 75 0 0 265 0 265 113 0 113 0 134 -265 135
-265 82 0 82 0 -134 263 c-74 145 -135 267 -135 270 0 4 25 18 55 32 69 33
138 109 162 178 23 69 23 176 -1 247 -29 84 -112 162 -200 189 -61 19 -93 21
-312 21 l-244 0 0 -600z m533 446 c59 -29 91 -85 95 -166 5 -89 -19 -147 -79
-187 -42 -28 -45 -28 -221 -31 l-178 -4 0 207 0 207 173 -4 c145 -2 178 -6
210 -22z"/>
<path d="M1480 1309 l0 -600 268 3 c249 3 270 4 314 25 70 32 131 94 163 164
25 56 27 70 23 153 -3 67 -10 102 -25 131 -24 46 -101 121 -139 135 l-26 10
55 50 c74 68 100 124 100 220 1 98 -27 164 -95 225 -83 74 -135 85 -409 85
l-229 0 0 -601z m473 457 c50 -18 76 -42 98 -91 44 -95 5 -215 -83 -261 -20
-10 -68 -14 -183 -14 l-155 0 0 190 0 190 143 0 c93 -1 155 -6 180 -14z m40
-520 c73 -30 111 -109 105 -216 -4 -84 -36 -138 -100 -169 -40 -19 -62 -21
-206 -21 l-162 0 0 210 0 210 165 0 c117 0 175 -4 198 -14z"/>
</g>
</svg>
